<mxfile host="app.diagrams.net" modified="2024-05-07T04:39:48.719Z" agent="Mozilla/5.0 (X11; Linux x86_64) AppleWebKit/537.36 (KHTML, like Gecko) Chrome/123.0.0.0 Safari/537.36 Edg/123.0.0.0" version="24.3.1" etag="zu5wACZeVOYYRJZkakFf" type="github">
  <diagram name="第 1 页" id="hJNBg75Ihvh9WSm6ws-Q">
    <mxGraphModel>
      <root>
        <mxCell id="0" />
        <mxCell id="1" parent="0" />
      </root>
    </mxGraphModel>
  </diagram>
</mxfile>
